<svg xmlns="http://www.w3.org/2000/svg" xmlns:xlink="http://www.w3.org/1999/xlink" width="1055.563" height="660.221" viewBox="0 0 1055.563 660.221">
  <defs>
    <clipPath id="clip-path">
      <rect id="Rectangle_5" data-name="Rectangle 5" width="1055.563" height="660.221" fill="none"/>
    </clipPath>
  </defs>
  <g id="Group_373" data-name="Group 373" transform="translate(0 0.001)">
    <g id="Group_1" data-name="Group 1" transform="translate(0 -0.001)" clip-path="url(#clip-path)">
      <path id="Path_1" data-name="Path 1" d="M925.973,878.779S1001.782,896.75,1039.1,815.3c48.415-105.668-19.537-206.048-136.756-213.278C733.281,591.6,826.977,321.681,560.2,394.917c-75.015,20.592-238.174-85.714-334.222,94.41-16.332,30.628-65.154,29.125-130.2,81.376-114.743,92.172-73.437,309.052,23.242,310.038s806.956-1.963,806.956-1.963" transform="translate(-15.2 -220.835)" fill="#d9e9fe"/>
      <path id="Path_2" data-name="Path 2" d="M285.911,1454.151s3.523-23.091,48.49-29.3,86.777-56.021,160.932-48.792,135.688,52.589,220.1,38.69,137.265,3.817,156.2,17.789,97.29-3.279,103.078,22.323Z" transform="translate(-165.192 -794.637)" fill="#3a4ace"/>
      <path id="Path_3" data-name="Path 3" d="M680.306,258.831s-50.751-2.482-23.828,152.193c0,0,18.112,52.5-4.752,86.344H988.3V258.831Z" transform="translate(-374.747 -149.544)" fill="#afcdfb"/>
      <path id="Path_4" data-name="Path 4" d="M790.653,1133.424s-23.514-27.431-1.45-44.856c0,0,16.115-9.757,29.256-8.965,0,0-18.62,31.224-12.6,34.33s18.24-36.289,18.24-36.289,36.674-3.556,48.473,2.116c0,0-31.352,25.656-24.75,27.184s40.468-23.655,40.468-23.655,34.134,5.809,32.314,26.631-13.582,27.253-18.751,26.7-35.408-12.1-36.067-7.861,17.544,18.078,30.29,18.725c0,0-24.065,26.539-40.059,18.881s-17.359-19.8-27.329-24.355-18.481-4.542-14.365.1,22.16,9.158,27.861,19.243,10.817,16.887-5.73,14.4-43.444-14.6-44.626-28.463Z" transform="translate(-450.525 -622)" fill="#3566c9"/>
      <path id="Path_5" data-name="Path 5" d="M890.509,1156.7s-92.711-3.573-113.184,22.941c0,0-4.528,13.561-18.461,25.91l-2.172,5.919s16.066-16.939,21.814-17.964c0,0-8.99-32.848,112-36.806" transform="translate(-437.197 -668.221)" fill="#3566c9"/>
      <path id="Path_6" data-name="Path 6" d="M732.714,1269.431s-19.9,14.716-21.281,41.012l3.611.323s6.356-27.189,17.843-37.822-.173-3.513-.173-3.513" transform="translate(-411.048 -732.096)" fill="#3566c9"/>
      <path id="Path_7" data-name="Path 7" d="M423.109,997.009s37.4-20.946,19.948-49.373c0,0-13.964-17.455-28.925-21.943,0,0,7.98,42.391,0,43.388s-5.486-47.876-5.486-47.876-39.4-18.952-54.859-17.455c0,0,24.437,41.394,16.457,40.4s-35.409-42.89-35.409-42.89-40.4-7.481-46.879,16.458,3.99,35.907,9.974,37.4,44.386,1,43.389,5.984-26.931,12.966-41.394,8.478c0,0,15.959,39.4,36.905,37.4s27.429-14.961,40.4-15.959,22.442,2.494,15.959,5.985-28.427,1.145-38.9,10.048-18.952,14.39.5,18.379,54.36,1.5,61.342-13.465Z" transform="translate(-165.192 -520.083)" fill="#6d89d0"/>
      <path id="Path_8" data-name="Path 8" d="M334.458,959.465s104.731,33.913,116.7,71.815c0,0-.5,16.957,9.974,36.406v7.481s-10.972-25.434-16.957-28.926c0,0,23.44-32.916-109.717-86.777" transform="translate(-193.241 -554.354)" fill="#6d89d0"/>
      <path id="Path_9" data-name="Path 9" d="M627.627,1209.407s16.151,24.526,6.943,54.382l-4.155-1.117s4.033-32.884-4.417-49.422,1.628-3.843,1.628-3.843" transform="translate(-359.736 -696.075)" fill="#6d89d0"/>
      <path id="Path_10" data-name="Path 10" d="M707.432,886.418s-49.305-27.611-26.3-65.083c0,0,18.407-23.009,38.129-28.925,0,0-10.518,55.879,0,57.194s7.231-63.111,7.231-63.111,51.935-24.981,72.315-23.009c0,0-32.213,54.564-21.694,53.249S823.792,760.2,823.792,760.2s53.249-9.862,61.8,21.694-5.259,47.333-13.148,49.305-58.509,1.315-57.194,7.889,35.5,17.093,54.564,11.176c0,0-21.037,51.935-48.648,49.305s-36.156-19.722-53.249-21.037-29.583,3.287-21.037,7.889,37.472,1.508,51.277,13.244,24.981,18.968-.657,24.227-71.658,1.972-80.861-17.75Z" transform="translate(-390.008 -438.379)" fill="#3a4ace"/>
      <path id="Path_11" data-name="Path 11" d="M887.627,836.929s-138.055,44.7-153.833,94.666c0,0,.658,22.352-13.148,47.99v9.862s14.463-33.528,22.351-38.13c0,0-30.9-43.388,144.629-114.388" transform="translate(-416.372 -483.556)" fill="#6d89d0"/>
      <path id="Path_12" data-name="Path 12" d="M703,1166.4s-21.291,32.33-9.153,71.685l5.478-1.471s-5.317-43.347,5.822-65.149S703,1166.4,703,1166.4" transform="translate(-398.729 -670.369)" fill="#6d89d0"/>
      <path id="Path_13" data-name="Path 13" d="M615.689,1414.541a96.581,96.581,0,0,0,96.581-96.581H519.108a96.581,96.581,0,0,0,96.581,96.581" transform="translate(-299.928 -761.484)" fill="#fb7369"/>
      <path id="Path_14" data-name="Path 14" d="M655.562,1413.8a96.648,96.648,0,0,1-108.576-95.843H570.98a96.6,96.6,0,0,0,84.582,95.843" transform="translate(-316.035 -761.483)" fill="#f2564b"/>
      <path id="Path_15" data-name="Path 15" d="M711.779,1542.038H515.949a11.915,11.915,0,0,1,11.916-11.916h172a11.916,11.916,0,0,1,11.916,11.916" transform="translate(-298.102 -884.066)" fill="#fb7369"/>
      <rect id="Rectangle_1" data-name="Rectangle 1" width="198.535" height="2.963" transform="translate(216.004 556.476)" fill="#f2564b"/>
      <path id="Path_16" data-name="Path 16" d="M1568.007,383.1s-16.919-31.924,8.432-44.08c0,0,17.864-5.981,30.511-2.324,0,0-25.019,26.375-19.824,30.727s25.76-31.4,25.76-31.4,36.561,4.58,46.826,12.7c0,0-36.219,18.15-30.113,21.09s44.673-14.2,44.673-14.2,32.027,13.16,25.681,33.075-19.232,23.607-24.153,21.932-31.89-19.573-33.462-15.586,13.147,21.487,25.44,24.917c0,0-29.3,20.61-43.226,9.627s-12.589-23.128-21.316-29.759-17.033-8.488-14.037-3.053,19.609,13.8,22.958,24.889,6.847,18.849-8.751,12.788-39.181-23.778-37.29-37.563Z" transform="translate(-902.76 -193.852)" fill="#3566c9"/>
      <path id="Path_17" data-name="Path 17" d="M1653.927,438.506s-89.666-23.835-115.46-2.462c0,0-7.395,12.237-23.7,21.226l-3.419,5.3s19.392-13,25.226-12.737c0,0-1.561-34.02,117.351-11.325" transform="translate(-873.22 -246.793)" fill="#3566c9"/>
      <path id="Path_18" data-name="Path 18" d="M1478.718,496.823s-22.645,9.991-29.765,35.341l3.453,1.108s12.168-25.131,25.709-32.983.6-3.466.6-3.466" transform="translate(-837.169 -286.346)" fill="#3566c9"/>
      <path id="Path_19" data-name="Path 19" d="M1265.543,131.67s-50.105-26.131-28.222-64.271c0,0,17.714-23.547,37.251-30.048,0,0-8.85,56.168,1.7,57.169s5.349-63.3,5.349-63.3,51.169-26.516,71.6-25.152c0,0-30.574,55.5-20.1,53.872s44.971-57.9,44.971-57.9,52.933-11.442,62.414,19.845-3.848,47.469-11.675,49.675-58.443,3.056-56.933,9.588,35.993,16.028,54.873,9.547c0,0-19.481,52.538-47.158,50.732s-36.729-18.637-53.853-19.442-29.472,4.166-20.792,8.511,37.5.392,51.648,11.712,25.535,18.216.065,24.236-71.567,4.105-81.353-15.334Z" transform="translate(-711.697 0.001)" fill="#3a4ace"/>
      <path id="Path_20" data-name="Path 20" d="M1446.65,76.9S1309.986,125.69,1295.7,176.1c0,0,1.323,22.322-11.713,48.361l.293,9.856s13.459-33.943,21.207-38.777c0,0-32.176-42.45,141.16-118.643" transform="translate(-741.857 -44.428)" fill="#6d89d0"/>
      <path id="Path_21" data-name="Path 21" d="M1268.21,417.739s-20.318,32.949-7.015,71.926l5.432-1.634s-6.605-43.17,3.88-65.292-2.3-5-2.3-5" transform="translate(-726.077 -237.707)" fill="#6d89d0"/>
      <rect id="Rectangle_2" data-name="Rectangle 2" width="351.389" height="458.26" transform="translate(326.901 200.839)" fill="#9abcef"/>
      <rect id="Rectangle_3" data-name="Rectangle 3" width="345.482" height="458.26" transform="translate(338.389 200.839)" fill="#f8fbff"/>
      <path id="Path_22" data-name="Path 22" d="M2099.853,1452.613h-69.618c-3.731-3.165,2.581-10.351,9.177-10.834,2.865-.216,6.487.383,10.626,1.258.957-12.724,6.428-69.927,27.047-67.628,23.184,2.573,0,25.19-6.554,38.582-4.855,9.918-9.977,24.141-12.316,30.854,1.882.408,3.83.808,5.82,1.174,3.073-9.435,14.507-41.172,29.047-39.323,17.071,2.165,10.209,14.89-1.891,22.442-8.877,5.555-19.778,13.449-24.958,17.263a74,74,0,0,0,13.616,1.091c11.925-.283,17.746,3.231,20,5.122" transform="translate(-1172.376 -794.637)" fill="#3a4ace"/>
      <path id="Path_23" data-name="Path 23" d="M1106.268,350.377l0,.005H760.781c1.911-26.126-.968-45.1-5.582-58.739-8.86-26.232-24.13-32.814-24.13-32.814h325.823c27.809,0,49.372,16.753,55.241,38.99.218.837.423,1.67.6,2.5,5.573,25.442-6.236,49.59-6.465,50.055" transform="translate(-422.393 -149.545)" fill="#f8fbff"/>
      <path id="Path_24" data-name="Path 24" d="M1139.288,395.28l0,.005H793.8c1.911-26.126-.968-45.1-5.582-58.739,35.306,6.465,122.752,20.241,216.351,17.921,60.552-1.5,108.4-5.554,141.183-9.242,5.573,25.442-6.236,49.59-6.465,50.055" transform="translate(-455.413 -194.447)" fill="#f8fbff"/>
      <path id="Path_25" data-name="Path 25" d="M1151.421,714.174H961.66a.147.147,0,0,1-.147-.147v-8.3a.147.147,0,0,1,.147-.147h189.761a.148.148,0,0,1,.147.147v8.3a.148.148,0,0,1-.147.147" transform="translate(-555.538 -407.666)" fill="#bbd5fc"/>
      <path id="Path_26" data-name="Path 26" d="M1079.788,748.418H961.66a.147.147,0,0,1-.147-.147v-8.3a.147.147,0,0,1,.147-.147h118.128a.147.147,0,0,1,.147.147v8.3a.148.148,0,0,1-.147.147" transform="translate(-555.538 -427.451)" fill="#bbd5fc"/>
      <path id="Path_27" data-name="Path 27" d="M912.752,727.24V709.686h-2.317q-2.108,0-2.107-1.755,0-1.264,1.651-1.791a12.239,12.239,0,0,1,2.685-.422q1.843-.139,2.966-.14,1.088,0,1.369.439a5.231,5.231,0,0,1,.281,2.229V727.24h2.388q2.317,0,2.316,2,0,2.106-2.316,2.106h-9.62a2.649,2.649,0,0,1-1.7-.544,1.842,1.842,0,0,1-.685-1.528q0-2.035,2.353-2.036Z" transform="translate(-524.424 -407.665)" fill="#bbd5fc"/>
      <path id="Path_28" data-name="Path 28" d="M1151.421,928.526H961.66a.147.147,0,0,1-.147-.147v-8.3a.147.147,0,0,1,.147-.147h189.761a.148.148,0,0,1,.147.147v8.3a.148.148,0,0,1-.147.147" transform="translate(-555.538 -531.513)" fill="#d2e4fd"/>
      <path id="Path_29" data-name="Path 29" d="M1079.788,962.771H961.66a.148.148,0,0,1-.147-.147v-8.3a.147.147,0,0,1,.147-.147h118.128a.147.147,0,0,1,.147.147v8.3a.148.148,0,0,1-.147.147" transform="translate(-555.538 -551.299)" fill="#d2e4fd"/>
      <path id="Path_30" data-name="Path 30" d="M922.151,941.232q0,1.755-2.451,1.753H909.523q-2.2,0-2.2-1.768a2.235,2.235,0,0,1,.59-1.3q.868-.992,2.544-2.978,2.544-3.2,4.251-5.523.589-.775,1.675-2.358a5.7,5.7,0,0,0,.9-2.668,2.743,2.743,0,0,0-.776-2,2.662,2.662,0,0,0-1.985-.791,3.046,3.046,0,0,0-2.049.744,3.536,3.536,0,0,0-.931,1.862,21.156,21.156,0,0,1-.559,2.048,1.573,1.573,0,0,1-1.52.993,1.741,1.741,0,0,1-1.458-.683,2.326,2.326,0,0,1-.5-1.551,7.5,7.5,0,0,1,.341-2.2,6.62,6.62,0,0,1,2.637-3.661,7.656,7.656,0,0,1,4.375-1.21,6.774,6.774,0,0,1,4.716,1.709,5.977,5.977,0,0,1,1.955,4.6,8.015,8.015,0,0,1-1.4,4.289q-.776,1.212-3.2,4.289-1.241,1.585-3.909,4.6h6.7q2.42,0,2.42,1.815" transform="translate(-524.227 -531.514)" fill="#d2e4fd"/>
      <path id="Path_31" data-name="Path 31" d="M1151.421,1107.335H961.66a.147.147,0,0,1-.147-.147v-8.3a.148.148,0,0,1,.147-.147h189.761a.148.148,0,0,1,.147.147v8.3a.148.148,0,0,1-.147.147" transform="translate(-555.538 -634.824)" fill="#d2e4fd"/>
      <path id="Path_32" data-name="Path 32" d="M1079.788,1141.58H961.66a.147.147,0,0,1-.147-.147v-8.3a.148.148,0,0,1,.147-.147h118.128a.148.148,0,0,1,.147.147v8.3a.147.147,0,0,1-.147.147" transform="translate(-555.538 -654.61)" fill="#d2e4fd"/>
      <path id="Path_33" data-name="Path 33" d="M921.615,1113.289a6.653,6.653,0,0,1-2.315,5.3,8.156,8.156,0,0,1-5.551,1.9,7.773,7.773,0,0,1-4.44-1.236q-2.918-1.967-2.918-4.726a1.987,1.987,0,0,1,.508-1.364,1.663,1.663,0,0,1,1.3-.571,1.987,1.987,0,0,1,1.553,1.11,24.371,24.371,0,0,0,1.364,2.031,3.538,3.538,0,0,0,2.7,1.11,3.368,3.368,0,0,0,3.171-1.649,4.391,4.391,0,0,0,.444-2.094q0-3.107-3.648-3.456-2.061-.191-2.061-1.745a1.66,1.66,0,0,1,1.2-1.618q2.237-.823,2.268-.856a3.063,3.063,0,0,0,1.2-2.759,2.48,2.48,0,0,0-.7-1.855,2.549,2.549,0,0,0-1.865-.681,3.412,3.412,0,0,0-2.275.7,4.568,4.568,0,0,0-1.17,2.062,1.445,1.445,0,0,1-1.454,1.11,1.49,1.49,0,0,1-1.249-.666,2.413,2.413,0,0,1-.49-1.459,4.051,4.051,0,0,1,.54-1.967,6.075,6.075,0,0,1,2.728-2.569,7.981,7.981,0,0,1,3.679-.856,6.408,6.408,0,0,1,4.487,1.634,5.539,5.539,0,0,1,1.793,4.3,5.888,5.888,0,0,1-2.664,5.075,5.749,5.749,0,0,1,3.869,5.8" transform="translate(-523.69 -633.518)" fill="#d2e4fd"/>
      <path id="Path_34" data-name="Path 34" d="M1195.334,534.091h-120.9a.172.172,0,0,1-.171-.171v-9.642a.171.171,0,0,1,.171-.171h120.9a.171.171,0,0,1,.171.171v9.642a.172.172,0,0,1-.171.171" transform="translate(-620.684 -302.815)" fill="#bbd5fc"/>
      <path id="Path_35" data-name="Path 35" d="M1184.073,570.549h-182.03a.171.171,0,0,1-.171-.171v-9.642a.171.171,0,0,1,.171-.171h182.03a.172.172,0,0,1,.171.171v9.642a.171.171,0,0,1-.171.171" transform="translate(-578.857 -323.88)" fill="#bbd5fc"/>
      <path id="Path_36" data-name="Path 36" d="M1706.649,1041.266s-1.239,12.048-2.6,14.327-7.149,9.561-9.615,10.99,1.507-9.6,1-11.741-2.03,3.915-3.117,4.058-.807-5.312-.846-7.3,5.289-6.885,7.167-11.112,8.007.775,8.007.775" transform="translate(-977.289 -600.189)" fill="#fc9490"/>
      <path id="Path_37" data-name="Path 37" d="M1349.2,752.918l-2.769-5.224s1.374-9.31-10.291-15.2c0,0-4.263-1.736-6.67,1.742-2.217,3.2,4.224,2.624,3.879,8.1s2.255,8.694,5.875,10.479l2.992,3.466Z" transform="translate(-767.866 -422.966)" fill="#fc9490"/>
      <path id="Path_38" data-name="Path 38" d="M1471.747,749.411s-10.018,49.169-65.147,65.234c-17.209,5.016-56.3-51.642-56.3-51.642s1.374-5.223,9.985-4.023c0,0,38.066,25.2,42.859,27.94,4.253,2.429,32.218-31.227,44.967-36.656a32.538,32.538,0,0,1,23.64-.853" transform="translate(-780.167 -431.949)" fill="#f2564b"/>
      <rect id="Rectangle_4" data-name="Rectangle 4" width="10.297" height="51.795" transform="translate(543.321 317.97) rotate(-81.268)" fill="#fb7369"/>
      <path id="Path_39" data-name="Path 39" d="M1260.466,732.236l11.121,6.917,1.563-10.178Z" transform="translate(-728.266 -421.183)" fill="#fc9490"/>
      <path id="Path_40" data-name="Path 40" d="M1415.051,751.889l-.495,3.218a3.626,3.626,0,0,1-4.134,3.033l-2.368-.364,1.563-10.177,2.575.4a3.417,3.417,0,0,1,2.859,3.895" transform="translate(-813.538 -431.943)" fill="#fc9490"/>
      <path id="Path_41" data-name="Path 41" d="M1759.918,1479.894s6.839,6.241,5.5,10.676-7.506,7.391-8.341,12.811-4.169,8.376-7.172,8.376h-14.315s-2.21-3.813,3.128-4.964,7.35-7.519,7.017-13.432a104.237,104.237,0,0,1,.5-13.8l11.343-2.628Z" transform="translate(-1002.521 -853.337)" fill="#293eb7"/>
      <path id="Path_42" data-name="Path 42" d="M1540.094,1514.65s1.228,14.2-1.775,15.682l-38.425-.078s0-4.435,6.171-5.42,17.014-4.6,18.849-12.647,15.179,2.464,15.179,2.464" transform="translate(-866.601 -871.95)" fill="#293eb7"/>
      <path id="Path_43" data-name="Path 43" d="M1518.27,1042.244s2.027,24.9,4.408,54.827c3.238,40.656,7.131,90.6,7.517,100.055.666,16.428,3.338,42.706,3.338,42.706s6.335,6.243,19.017,3.612c0,0,11.3-37.513,14.527-77.2.05-.65.1-1.306.15-1.961,3-40.4,7.671-125.486,7.671-125.486Z" transform="translate(-877.218 -600.189)" fill="#3a4ace"/>
      <path id="Path_44" data-name="Path 44" d="M1518.27,1042.244s2.027,24.9,4.408,54.827l44.4,69.171c.05-.65.1-1.306.15-1.961,3-40.4,7.671-125.486,7.671-125.486Z" transform="translate(-877.218 -600.189)" fill="#293eb7"/>
      <path id="Path_45" data-name="Path 45" d="M1540.191,1031.715s36.531,90.171,60.55,132.547,31.527,54.2,31.527,54.2,13.761-5.421,15.012-9.116c0,0-9.185-81.808-25.271-101.751-9.089-11.269-19.766-45.085-20.267-56.911s-3.252-35.231-3.252-35.231Z" transform="translate(-889.884 -586.704)" fill="#3a4ace"/>
      <path id="Path_46" data-name="Path 46" d="M1600.7,683.867s-24.717,11.926-38.967,7.5a33.637,33.637,0,0,1,9.646-7.717c-.493-2.86-.877-5.342-1.1-7.447a68.882,68.882,0,0,1-.6-7.609l9.535-7.5,9.043-7.177c-.713,20.182,12.441,29.95,12.441,29.95" transform="translate(-902.332 -377.816)" fill="#fc9490"/>
      <path id="Path_47" data-name="Path 47" d="M1585.8,844.5c.054,1.511-3.18,3.238-4.6,3.885-10.577,4.641-20.442,7.878-31.623,8.958-13.208,1.349-28.827-1.619-34.2-1.512a2.235,2.235,0,0,1-1.48-.593c-.383-.271-.657-16.19-.383-36.21,0-.81,0-1.62.055-2.429v-.27c.11-7.825.383-16.027.767-24.23.768-18.024,2.192-35.4,4.6-45.006,2.905-11.332,9.482-18.833,15.455-24.284l4.933-4.318a23.7,23.7,0,0,0,15.345-1.833c5.7-2.753,11.838-5.721,12.825-4.966,7.453,5.45,12.5,17.7,15.181,33.35a173.506,173.506,0,0,1,2.247,29.68c0,3.885-.11,7.879-.33,11.818a372.6,372.6,0,0,0,.768,50.671c.219,3.131.383,5.559.439,7.286" transform="translate(-874.407 -411.129)" fill="#fb7369"/>
      <path id="Path_48" data-name="Path 48" d="M1624.867,889.316c-86.552-.173-15.964-93.919-15.964-93.919l14.022-4.554a272.392,272.392,0,0,1,1.625,31.71c0,4.152-.079,8.417-.238,12.626-.95,22.831,0,42.664.554,54.137" transform="translate(-913.91 -456.929)" fill="#f2564b"/>
      <path id="Path_49" data-name="Path 49" d="M1599.3,671.455s-6.248,11.386-18.141,14.57a68.883,68.883,0,0,1-.6-7.609l9.536-7.5Z" transform="translate(-913.207 -387.637)" fill="#f48484"/>
      <path id="Path_50" data-name="Path 50" d="M1563.963,635.341s23.58,3.857,25.793-10.638,6.748-23.761-8.214-26.836-18.738,2.021-20.672,6.683-2.984,29.415,3.092,30.791" transform="translate(-900.96 -344.891)" fill="#fc9490"/>
      <path id="Path_51" data-name="Path 51" d="M1587.9,584.08c.214-.245.708-.443,1.806-.5a4.453,4.453,0,0,0-2.052-.578c-.23-1.527-1.043-4.232-3.672-4.889a3.3,3.3,0,0,1,1.6,2.378c-3.046-3.128-9.572-5.4-27.642-3.978-23.816,1.88-15.966,17.128-12.884,18.946s10.845-3.166,16.588-2.71,6.837,8.757,8.786,9.9,1.183-.875,3.819-2.067,2.888,3.177,2.126,6.018,2.861,6.588,2.861,6.588l3.661-3.943c3.661-3.943,7.112-20.643,5.448-24.2-.147-.315-.292-.633-.443-.953" transform="translate(-890.533 -332.84)" fill="#2c3a64"/>
      <path id="Path_52" data-name="Path 52" d="M1626.042,711.572s14.918,7.064,22.072,17.926c11.1,16.846,23.957,78.244,24.194,83.93s-9.387,45.825-9.387,45.825-9.762-.643-12.28-5.57c0,0,1.95-41.242.714-43.893s-40.7-55.322-36.259-66.561,10.945-31.656,10.945-31.656" transform="translate(-932.962 -411.128)" fill="#fb7369"/>
      <path id="Path_53" data-name="Path 53" d="M1360.2,755.469s.812-3.2-1.412-4.645-4.268-5.358-5.205-4.827c-1.941,1.1,1.063,4.518.513,8.781-.192,1.493,3.283,5.405,6.1.691" transform="translate(-781.684 -430.989)" fill="#fc9490"/>
      <path id="Path_54" data-name="Path 54" d="M423.848,1381.927s-35.044-89.734-59.621-75.446,59.621,75.446,59.621,75.446" transform="translate(-207.844 -753.961)" fill="#3a4ace"/>
      <path id="Path_55" data-name="Path 55" d="M373.8,1441.437s-46.3-40.009-67.443-32.578,67.443,32.578,67.443,32.578" transform="translate(-175.119 -813.471)" fill="#3a4ace"/>
      <path id="Path_56" data-name="Path 56" d="M1631.532,1472.623s10.668-37.095,23.184-32.718-23.184,32.718-23.184,32.718" transform="translate(-942.658 -831.733)" fill="#3a4ace"/>
      <path id="Path_57" data-name="Path 57" d="M1654.59,1494.742s27.235-17.877,33.219-12.351-33.219,12.351-33.219,12.351" transform="translate(-955.981 -855.875)" fill="#3a4ace"/>
      <path id="Path_58" data-name="Path 58" d="M1139.912,1317.9H927.469a2.585,2.585,0,1,1,0-5.171h212.443a2.585,2.585,0,0,1,0,5.171" transform="translate(-534.375 -758.462)" fill="#d2e4fd"/>
      <path id="Path_59" data-name="Path 59" d="M1139.912,1342.41H927.469a2.585,2.585,0,0,1,0-5.171h212.443a2.585,2.585,0,0,1,0,5.171" transform="translate(-534.375 -772.623)" fill="#d2e4fd"/>
      <path id="Path_60" data-name="Path 60" d="M1139.912,1369.57H927.469a2.585,2.585,0,1,1,0-5.171h212.443a2.585,2.585,0,0,1,0,5.171" transform="translate(-534.375 -788.315)" fill="#d2e4fd"/>
      <path id="Path_61" data-name="Path 61" d="M1114.347,1396.73H924.972a.089.089,0,0,1-.089-.089v-4.994a.089.089,0,0,1,.089-.089h189.375a.089.089,0,0,1,.089.089v4.994a.089.089,0,0,1-.089.089" transform="translate(-534.374 -804.007)" fill="#d2e4fd"/>
      <path id="Path_62" data-name="Path 62" d="M1055.525,1560.6H.039a.039.039,0,0,1-.039-.039v-2.168a.039.039,0,0,1,.039-.038H1055.525a.038.038,0,0,1,.038.038v2.168a.039.039,0,0,1-.038.039" transform="translate(0 -900.376)" fill="#1c468a"/>
    </g>
  </g>
</svg>
